<?xml version="1.0" standalone="no"?>
<!DOCTYPE svg PUBLIC "-//W3C//DTD SVG 20010904//EN"
 "http://www.w3.org/TR/2001/REC-SVG-20010904/DTD/svg10.dtd">
<svg version="1.0" xmlns="http://www.w3.org/2000/svg"
 width="583.000000pt" height="583.000000pt" viewBox="0 0 583.000000 583.000000"
 preserveAspectRatio="xMidYMid meet">
<metadata>
Created by potrace 1.14, written by Peter Selinger 2001-2017
</metadata>
<g transform="translate(0.000000,583.000000) scale(0.100000,-0.100000)"
fill="#000000" stroke="none">
<path d="M1557 4632 c-9 -2 -17 -7 -17 -12 0 -8 -21 -47 -94 -170 -15 -25 -32
-57 -39 -72 -6 -16 -15 -28 -19 -28 -4 0 -8 -4 -8 -9 0 -4 -41 -80 -92 -167
-50 -88 -101 -177 -113 -199 -19 -34 -61 -107 -103 -180 -40 -68 -169 -297
-187 -330 -12 -22 -64 -114 -115 -205 -51 -91 -103 -183 -115 -205 -12 -22
-36 -65 -53 -96 l-31 -55 53 -95 c28 -51 65 -116 80 -144 16 -27 64 -114 108
-193 l81 -143 21 33 c13 18 53 85 90 148 37 63 71 122 76 130 40 66 117 198
123 210 4 8 15 29 26 45 24 39 52 88 97 172 20 37 42 75 48 83 7 8 21 33 33
55 44 83 71 132 112 203 l42 74 -25 39 c-14 21 -26 40 -26 43 0 2 -18 34 -40
70 -22 36 -40 70 -40 75 0 5 -3 11 -7 13 -5 2 -17 19 -27 38 -10 19 -35 62
-54 95 -19 33 -42 74 -50 90 -9 17 -26 46 -39 65 -13 19 -23 38 -23 42 0 5
298 8 663 8 l662 0 14 -22 c7 -12 24 -40 36 -62 40 -70 264 -460 274 -476 9
-13 12 -12 25 5 8 11 26 40 39 65 13 25 52 95 87 155 35 61 71 124 80 140 9
17 38 67 64 113 l48 82 336 -2 335 -3 27 -50 c33 -62 176 -314 190 -335 6 -8
13 -22 17 -30 4 -8 10 -17 13 -20 6 -4 74 -121 160 -278 27 -47 90 -156 100
-172 5 -8 16 -28 25 -45 8 -16 19 -37 24 -45 6 -8 31 -50 56 -92 l46 -78 -52
-92 c-29 -51 -63 -113 -76 -138 -13 -25 -35 -63 -47 -85 -13 -22 -66 -116
-118 -210 -95 -171 -104 -185 -173 -305 -21 -36 -48 -83 -60 -105 -13 -22 -46
-82 -75 -133 l-52 -92 -276 -1 c-363 -1 -393 -1 -397 3 -1 2 22 46 53 98 30
52 64 111 75 130 45 81 152 268 170 300 22 38 44 75 98 171 58 103 73 129 133
231 31 54 56 102 56 108 0 5 4 10 9 10 15 0 24 32 26 99 l3 64 -101 171 c-135
231 -167 287 -167 294 0 4 -9 17 -18 30 l-18 24 -33 -59 c-17 -32 -45 -80 -61
-108 -16 -27 -36 -63 -45 -80 -8 -16 -19 -37 -24 -45 -18 -26 -96 -161 -157
-270 -32 -58 -63 -113 -69 -122 -5 -9 -26 -45 -46 -80 -20 -35 -47 -81 -59
-103 -13 -22 -33 -58 -46 -80 -36 -66 -213 -376 -248 -435 -18 -30 -44 -75
-57 -100 -13 -25 -26 -47 -29 -50 -3 -3 -11 -16 -18 -30 -6 -14 -20 -38 -30
-55 -9 -16 -28 -49 -41 -72 l-24 -41 -283 -1 c-155 0 -286 -1 -291 -2 -4 -1
-25 -1 -46 0 l-39 1 28 48 c15 26 37 63 49 83 33 60 106 187 178 309 31 52 58
100 98 171 19 35 62 109 93 164 32 55 71 123 86 150 15 28 47 84 72 125 24 41
47 82 50 90 7 18 -4 41 -102 207 -41 70 -77 132 -79 138 -2 5 -9 17 -17 25 -7
8 -27 42 -44 75 -17 33 -37 69 -43 80 -7 11 -18 31 -26 43 -12 23 -15 20 -73
-80 -33 -56 -70 -121 -83 -143 -12 -22 -51 -89 -85 -150 -35 -60 -73 -128 -86
-150 -12 -22 -97 -170 -188 -328 -91 -159 -166 -291 -166 -293 0 -3 -5 -10
-10 -17 -6 -7 -45 -70 -86 -142 -42 -71 -112 -189 -155 -262 -77 -129 -89
-159 -70 -179 9 -9 169 -282 184 -314 4 -8 18 -33 31 -55 13 -22 37 -64 53
-93 15 -30 35 -61 44 -70 14 -16 112 -17 1342 -17 866 0 1329 4 1336 10 9 9
20 28 79 135 13 25 28 50 32 55 10 13 48 79 75 130 12 22 33 59 48 82 15 24
27 44 27 47 0 2 25 45 55 95 30 51 55 93 55 96 0 2 21 39 46 82 49 83 79 135
152 273 24 47 52 96 62 110 9 14 24 39 32 55 8 17 32 59 53 95 21 36 47 83 60
105 12 22 37 67 55 100 18 33 49 87 69 121 20 33 47 81 60 106 l24 45 -35 64
c-19 35 -45 82 -58 104 -38 67 -148 262 -291 517 -96 170 -235 415 -249 438
-27 44 -127 217 -133 230 -4 8 -17 32 -30 53 -12 21 -58 99 -101 175 -43 75
-81 139 -83 142 -4 5 -2650 7 -2676 2z"/>
</g>
</svg>
